<svg width="88" height="88" viewBox="0 0 88 88" fill="none" xmlns="http://www.w3.org/2000/svg">
<path fill-rule="evenodd" clip-rule="evenodd" d="M44 87.75C55.6032 87.75 66.7312 83.1406 74.9359 74.9359C83.1406 66.7312 87.75 55.6032 87.75 44C87.75 32.3968 83.1406 21.2688 74.9359 13.0641C66.7312 4.85936 55.6032 0.25 44 0.25C32.3968 0.25 21.2688 4.85936 13.0641 13.0641C4.85936 21.2688 0.25 32.3968 0.25 44C0.25 55.6032 4.85936 66.7312 13.0641 74.9359C21.2688 83.1406 32.3968 87.75 44 87.75ZM37.625 61.9375H33.1875L19 47.75L23.4375 43.3125L35.4375 55.3125L61.6875 29L66.125 33.4375L37.625 61.9375Z" fill="#13CA46"/>
</svg>
