<svg width="88" height="88" viewBox="0 0 88 88" fill="none" xmlns="http://www.w3.org/2000/svg">
<g clip-path="url(#clip0_479_43)">
<path d="M44 0C55.6695 0 66.8611 4.6357 75.1127 12.8873C83.3643 21.1389 88 32.3305 88 44C88 55.6695 83.3643 66.8611 75.1127 75.1127C66.8611 83.3643 55.6695 88 44 88C32.3305 88 21.1389 83.3643 12.8873 75.1127C4.6357 66.8611 0 55.6695 0 44C0 32.3305 4.6357 21.1389 12.8873 12.8873C21.1389 4.6357 32.3305 0 44 0V0ZM24.75 41.25C24.0207 41.25 23.3212 41.5397 22.8055 42.0555C22.2897 42.5712 22 43.2707 22 44C22 44.7293 22.2897 45.4288 22.8055 45.9445C23.3212 46.4603 24.0207 46.75 24.75 46.75H56.6115L44.803 58.553C44.5473 58.8087 44.3445 59.1122 44.2061 59.4463C44.0677 59.7804 43.9965 60.1384 43.9965 60.5C43.9965 60.8616 44.0677 61.2196 44.2061 61.5537C44.3445 61.8878 44.5473 62.1913 44.803 62.447C45.0587 62.7027 45.3622 62.9055 45.6963 63.0439C46.0304 63.1823 46.3884 63.2535 46.75 63.2535C47.1116 63.2535 47.4696 63.1823 47.8037 63.0439C48.1378 62.9055 48.4413 62.7027 48.697 62.447L65.197 45.947C65.4531 45.6915 65.6563 45.3881 65.7949 45.054C65.9336 44.7199 66.0049 44.3617 66.0049 44C66.0049 43.6383 65.9336 43.2801 65.7949 42.946C65.6563 42.6119 65.4531 42.3085 65.197 42.053L48.697 25.553C48.4413 25.2973 48.1378 25.0945 47.8037 24.9561C47.4696 24.8177 47.1116 24.7465 46.75 24.7465C46.3884 24.7465 46.0304 24.8177 45.6963 24.9561C45.3622 25.0945 45.0587 25.2973 44.803 25.553C44.5473 25.8087 44.3445 26.1122 44.2061 26.4463C44.0677 26.7804 43.9965 27.1384 43.9965 27.5C43.9965 27.8616 44.0677 28.2196 44.2061 28.5537C44.3445 28.8878 44.5473 29.1913 44.803 29.447L56.6115 41.25H24.75Z" fill="#FEB60A"/>
</g>
<defs>
<clipPath id="clip0_479_43">
<rect width="88" height="88" fill="white"/>
</clipPath>
</defs>
</svg>
