<svg width="35" height="35" viewBox="0 0 35 35" fill="none" xmlns="http://www.w3.org/2000/svg">
<path d="M3.82812 12.5781V22.4219H9.29688L18.0469 28.9844V6.01562L9.29688 12.5781H3.82812ZM23.5156 13.6719C23.5156 13.6719 25.7031 14.7656 25.7031 17.5C25.7031 20.2344 23.5156 21.3281 23.5156 21.3281M25.7031 7.10938C30.0781 9.29688 32.2656 12.5781 32.2656 17.5C32.2656 22.4219 30.0781 25.7031 25.7031 27.8906" fill="#A2833A"/>
<path d="M23.5156 13.6719C23.5156 13.6719 25.7031 14.7656 25.7031 17.5C25.7031 20.2344 23.5156 21.3281 23.5156 21.3281M25.7031 7.10938C30.0781 9.29688 32.2656 12.5781 32.2656 17.5C32.2656 22.4219 30.0781 25.7031 25.7031 27.8906M3.82812 12.5781V22.4219H9.29688L18.0469 28.9844V6.01562L9.29688 12.5781H3.82812Z" stroke="white" stroke-width="2" stroke-linecap="round" stroke-linejoin="round"/>
</svg>
