<svg width="24" height="24" viewBox="0 0 24 24" fill="none" xmlns="http://www.w3.org/2000/svg">
<path d="M22.6749 12.2845L13.2413 2.85577L12.609 2.22345C12.4649 2.08033 12.2701 2 12.067 2C11.8639 2 11.6691 2.08033 11.525 2.22345L1.45909 12.2845C1.31146 12.4315 1.19478 12.6067 1.11595 12.7996C1.03712 12.9924 0.997728 13.1992 1.0001 13.4075C1.00987 14.2669 1.7252 14.9529 2.58457 14.9529H3.62217V22.9046H20.5118V14.9529H21.5714C21.9889 14.9529 22.3819 14.7894 22.6773 14.494C22.8228 14.349 22.9381 14.1766 23.0164 13.9867C23.0948 13.7969 23.1347 13.5934 23.1339 13.388C23.1339 12.973 22.9703 12.5799 22.6749 12.2845ZM13.4342 21.1468H10.6998V16.1663H13.4342V21.1468ZM18.754 13.1951V21.1468H14.9967V15.5804C14.9967 15.0408 14.5597 14.6038 14.0201 14.6038H10.1139C9.57432 14.6038 9.13731 15.0408 9.13731 15.5804V21.1468H5.37998V13.1951H3.03623L12.0694 4.16925L12.6334 4.73321L21.1002 13.1951H18.754Z" fill="white"/>
</svg>
