<svg width="24" height="24" viewBox="0 0 24 24" fill="none" xmlns="http://www.w3.org/2000/svg">
<path d="M1.78601 12.2439L4.13379 10.0328M4.13379 10.0328L12.351 2.29395L20.5682 10.0328M4.13379 10.0328V21.0884C4.13379 21.3816 4.25747 21.6628 4.47761 21.8701C4.69776 22.0775 4.99634 22.1939 5.30768 22.1939H8.82934M20.5682 10.0328L22.916 12.2439M20.5682 10.0328V21.0884C20.5682 21.3816 20.4446 21.6628 20.2244 21.8701C20.0043 22.0775 19.7057 22.1939 19.3943 22.1939H15.8727M8.82934 22.1939C9.14068 22.1939 9.43926 22.0775 9.65941 21.8701C9.87955 21.6628 10.0032 21.3816 10.0032 21.0884V16.6662C10.0032 16.373 10.1269 16.0918 10.3471 15.8844C10.5672 15.6771 10.8658 15.5606 11.1771 15.5606H13.5249C13.8362 15.5606 14.1348 15.6771 14.355 15.8844C14.5751 16.0918 14.6988 16.373 14.6988 16.6662V21.0884C14.6988 21.3816 14.8225 21.6628 15.0426 21.8701C15.2628 22.0775 15.5613 22.1939 15.8727 22.1939M8.82934 22.1939H15.8727" stroke="black" stroke-width="1.5" stroke-linecap="round" stroke-linejoin="round"/>
</svg>
